<?xml version="1.0" encoding="utf-8"?>
<!-- Generator: Adobe Illustrator 25.2.0, SVG Export Plug-In . SVG Version: 6.00 Build 0)  -->
<svg version="1.1" id="Properties_Rollover_1_"
	 xmlns="http://www.w3.org/2000/svg" xmlns:xlink="http://www.w3.org/1999/xlink" x="0px" y="0px" viewBox="0 0 3000 1668"
	 style="enable-background:new 0 0 3000 1668;" xml:space="preserve">
<style type="text/css">
	.map-area .st0{fill:#d8d9d8;stroke:#969696;stroke-width:1.24;stroke-miterlimit:10;}
	.map-area .st1{fill:#676767;}
	.map-area .st2{fill:none;stroke:#969696;stroke-width:1.24;stroke-miterlimit:10;}
	.map-area .st3{fill:#969696;}
	.map-area .st4{font-family:'KeplerStd-BoldDisp';}
	.map-area .st5{font-size:12.4px;}
	.map-area.hoverable:hover .st0{fill:#b4c3e4;stroke:#8FADD2;stroke-width:1.24;stroke-miterlimit:10;}
	.map-area.hoverable:hover .st1{fill:#1a5474;}
	.map-area.hoverable:hover .st2{fill:none;stroke:#8FADD2;stroke-width:1.24;stroke-miterlimit:10;}
	.map-area.hoverable:hover .st3{fill:#8FADD2;}
	.map-area.hoverable:hover .st4{font-family:'KeplerStd-BoldDisp';}
	.map-area.hoverable:hover .st5{font-size:12.4px;}
</style>
	<g id="area-27Route202" class="map-area">
		<polygon id="_x32_7_Route_202_property" class="st0" points="1268.5,995 1346.3,1110.7 1474.3,1049 1458.2,997.5 1444.9,995 
			1387.3,909.7 			"/>
		<polygon id="_x32_7_Route_202_building_1_" class="st1" points="1371.5,1071.7 1394.6,1064.9 1395,1066 1423,1057.5 
			1422.6,1056.2 1445.3,1048.8 1440.7,1035 1429.6,1038.5 1418.7,1004.1 1404.5,1008.4 1411.5,1031.7 1389.3,1039.1 1382.6,1015.2 
			1368.7,1019.5 1369.9,1023.9 1358.5,1027.4 			"/>
		<polygon id="_x32_7_Route_202_building" class="st1" points="1420.6,993.5 1438.3,987.9 1444.5,996.6 1446.9,1004.2 
			1448.2,1003.8 1457.9,1018.1 1434.4,1026.3 1431,1016.8 1428.2,1017.5 			"/>
		<polygon class="st1" points="1445,1033.6 1464,1027.6 1468.5,1042.8 1464.5,1044 1464.7,1044.8 1453.6,1048 1453.3,1047.1 
			1449.7,1048.4 			"/>
	</g>
	<g id="area-FarHillsProper" class="map-area">
		<polygon id="Far_Hills_Proper_Property_11_" class="st0" points="1628.1,926.2 1565,837.3 1562.7,834.1 1410.1,619.1 1484,631.3 
			1540.6,638.6 1598,645.9 1700.7,725.6 1688.2,741.8 1687.4,741.1 1682.2,747.8 1684.4,749.6 1675.9,761.3 1733.4,805.9 
			1680.6,874 1662.8,895 			"/>
		<g id="Far_Hills_Proper_Lines_1_" class="map-area">
			<polyline id="Far_Hills_Proper_Property_10_" class="st2" points="1562.7,834.1 1588.4,816.2 1609.4,847.1 1621.3,838.5 
				1662.8,895 				"/>
			<polyline id="Far_Hills_Proper_Property_9_" class="st2" points="1680.6,874 1662.2,859.1 1640,831.1 1637.9,832.6 
				1635.2,828.9 1621.3,838.5 				"/>
			<polyline id="Far_Hills_Proper_Property_8_" class="st2" points="1635.9,828.4 1593.8,769 1542.1,805.1 				"/>
			<polyline id="Far_Hills_Proper_Property_7_" class="st2" points="1520.4,774.5 1571.9,738 1593.8,769 				"/>
			<polyline id="Far_Hills_Proper_Property_6_" class="st2" points="1484,631.3 1480.7,653.7 1487,666.2 1459.7,689 				"/>
		</g>
		<polygon id="Far_Hills_Proper_Building_25_" class="st1" points="1613.3,870.5 1623.3,863.2 1628.8,870.7 1626.5,872.4 
			1630,877.2 1635.2,873.4 1640.7,881.1 1643.9,882.6 1646.1,885.8 1646.7,888.9 1647.5,890 1644.5,892.1 1646.4,894.7 
			1640.9,898.7 1638.2,895 1630.8,900.3 1625.3,892.8 1622.1,895 1621.2,893.6 1618,893.7 1616.4,891.4 1617.1,888.4 1616.2,887 
			1619.1,884.9 1615.1,879.4 1618.2,877.2 			"/>
		<polygon id="Far_Hills_Proper_Building_24_" class="st1" points="1433.3,646.1 1447.6,635.9 1474.1,673.2 1459.7,683.2 			"/>
		<polygon id="Far_Hills_Proper_Building_23_" class="st1" points="1463.8,691.9 1474.9,707.6 1507.7,678.2 1493.3,664.8 			"/>
		<polyline id="Far_Hills_Proper_Building_22_" class="st1" points="1536.2,662 1543.7,654.5 1615.1,724.5 1607.7,731.6 			"/>
		<polygon id="Far_Hills_Proper_Building_21_" class="st1" points="1614.1,725.5 1624.7,714.8 1657.1,747.7 1646.5,758.4 
			1645.7,757.7 1638,765.6 1629.2,757.3 1637.4,749 			"/>
		<polygon id="Far_Hills_Proper_Building_20_" class="st1" points="1575.3,741.3 1581.5,736.7 1611.1,778.8 1620.2,772.5 
			1634.7,793.4 1636.2,792.4 1658.2,824.5 1693.6,852.8 1679.3,870.5 1659.6,854.7 1640.4,827.8 1637.3,830 			"/>
		<polygon id="Far_Hills_Proper_Building_19_" class="st1" points="1585.9,663.2 1591.5,654.1 1617.7,670.1 1611.9,679 			"/>
		<polygon id="Far_Hills_Proper_Building_18_" class="st1" points="1615.1,679.9 1624.5,667.7 1698.9,725.3 1682.2,747.8 
			1646,719.9 1653.8,709.9 			"/>
		<polygon id="Far_Hills_Proper_Building_17_" class="st1" points="1666.4,827.6 1668.8,824.7 1666.6,822.9 1675.2,812.2 
			1706.3,836.9 1695,850.7 			"/>
		<polygon id="Far_Hills_Proper_Building_16_" class="st1" points="1531.2,770.6 1535.7,776.9 1536.1,779.4 1537.9,782.1 
			1540.2,783 1546.8,792.3 1560.8,782.1 1545.1,760.4 			"/>
		<polygon id="Far_Hills_Proper_Building_15_" class="st1" points="1552.7,800.8 1564.3,817.5 1591.9,798 1605.2,816.5 
			1619.4,806.5 1602.2,782.3 1596.7,786.2 1588.8,775.2 			"/>
		<polygon id="Far_Hills_Proper_Building_14_" class="st1" points="1641.1,860.7 1656,880.4 1656.8,879.8 1658.4,882 1663,878.5 
			1661.4,876.2 1661.9,875.7 1664.4,875.6 1667.7,873.4 1668.4,871 1669.1,870.5 1656.5,854.2 1650,859.2 1647.5,855.8 			"/>
		<polygon id="Far_Hills_Proper_Building_13_" class="st1" points="1523.3,664.6 1530.9,656.9 1623.6,747 1616,754.8 			"/>
		<g id="Far_Hills_Proper_-_L.V._Ludlow_1_" class="map-area">
			<text transform="matrix(1 0 0 1 1513.4396 719.6793)"><tspan x="0" y="0" class="st3 st4 st5">L.V.</tspan><tspan x="-9.3" y="12.4" class="st3 st4 st5">Ludlow</tspan></text>
		</g>
	</g>
</svg>
