<?xml version="1.0" encoding="utf-8"?>
<!-- Generator: Adobe Illustrator 25.2.1, SVG Export Plug-In . SVG Version: 6.00 Build 0)  -->

<svg version="1.1" id="_x32_3_Quimby_Lane"
	 xmlns="http://www.w3.org/2000/svg" xmlns:xlink="http://www.w3.org/1999/xlink" x="0px" y="0px" viewBox="0 0 3000 1807"
	 style="enable-background:new 0 0 3000 1807;" xml:space="preserve">
<style type="text/css">
	.map-area .st0{fill:#d9e0f0;stroke:#969696;stroke-miterlimit:10;}
	.map-area .st1{fill:#676767;}
	.map-area.hoverable:hover .st0{fill:#b4c3e4;stroke:#8FADD2;stroke-miterlimit:10;}
	.map-area.hoverable:hover .st1{fill:#1a5474;}
</style>
		<g id="area-59MineBrookRoad" class="map-area">
			<polygon class="st0" points="1032.7,1249.4 968.4,1124.2 1046.7,1085.1 1099.4,1196 		"/>
			<g>
				<polygon class="st1" points="991.6,1172.8 1012.3,1215 1050.3,1195.8 1051.7,1198.9 1054.9,1197.3 1032.8,1152.3 			"/>
			</g>
			<g>
				<polygon class="st1" points="1041.6,1166.8 1055.9,1159.7 1056,1159.9 1072.5,1151.7 1083.2,1173.2 1087.4,1174.5 1098.1,1196.5 
					1063.3,1222.9 1051.6,1199.1 1054.8,1197.5 1043.5,1174.4 1045,1173.6 			"/>
			</g>
		</g>
		<g id="area-QuimbyVillage" class="map-area">
			<polygon id="_x31_1_Olcott_Square_property_2_" class="st0" points="1676.3,703 1553.1,676.7 1526.5,669.2 1546.7,589.3 
				1670.6,634.3 		"/>
			<g id="_x31_1_Olcott_Square_building_2" class="map-area">
				<polygon class="st1" points="1598.3,683.6 1668.1,697.7 1666.4,637.4 1614,616.9 			"/>
			</g>
			<polygon id="_x32_3_Quimby_Lane_propery_2_" class="st0" points="1554.1,765.5 1435.2,750.3 1452.7,649 1552.4,676.6 		"/>
			<g id="_x32_3_Quimby_Lane_building_2" class="map-area">
				<polygon class="st1" points="1542.2,676.3 1536.5,717.7 1512.7,714.3 1506.8,727.8 1443.7,716.6 1452.1,660.8 1518.3,673.7 
					1519.1,670.4 			"/>
			</g>
		</g>
</svg>
