<?xml version="1.0" encoding="utf-8"?>
<!-- Generator: Adobe Illustrator 25.2.0, SVG Export Plug-In . SVG Version: 6.00 Build 0)  -->
<svg version="1.1" id="Properties_Rollover"
	 xmlns="http://www.w3.org/2000/svg" xmlns:xlink="http://www.w3.org/1999/xlink" x="0px" y="0px" viewBox="0 0 3000 1650"
	 style="enable-background:new 0 0 3000 1650;" xml:space="preserve">
<style type="text/css">
	.map-area .st0{fill:#d8d9d8;stroke:#969696;stroke-miterlimit:10;}
	.map-area .st1{fill:#676767;}
	.map-area.hoverable:hover .st0{fill:#e1e8f4;stroke:#8FADD2;stroke-miterlimit:10;}
	.map-area.hoverable:hover .st1{fill:#1a5474;}
</style>
	<g id="area-59MineBrookRoad" class="map-area">
		<polygon class="st0" points="905.7,1332.6 868.8,1260.7 913.8,1238.3 944.1,1302 			"/>
		<g>
			<polygon class="st1" points="882.1,1288.6 894,1312.9 915.8,1301.8 916.7,1303.6 918.5,1302.7 905.8,1276.8 				"/>
		</g>
		<g>
			<polygon class="st1" points="910.9,1285.2 919.1,1281.1 919.2,1281.2 928.6,1276.5 934.7,1288.9 937.2,1289.6 943.3,1302.2 
				923.3,1317.4 916.6,1303.8 918.4,1302.8 912,1289.5 912.8,1289.1 				"/>
		</g>
	</g>
	<g id="area-QuimbyVillage" class="map-area">
		<polygon id="_x32_3_Quimby_Lane_propery_1_" class="st0" points="1207.5,1052.4 1139.3,1043.7 1149.3,985.4 1206.6,1001.3 			"/>
		<g id="_x32_3_Quimby_Lane_building_1_" class="map-area">
			<polygon class="st1" points="1200.7,1001.1 1197.4,1024.9 1183.7,1023 1180.4,1030.7 1144.1,1024.3 1149,992.2 1187,999.7 
				1187.5,997.7 				"/>
		</g>
		<g id="_x31_1_Olcott_Square" class="map-area">
			<polygon id="_x31_1_Olcott_Square_property_2_" class="st0" points="1277.7,1016.5 1207,1001.4 1191.7,997.1 1203.3,951.2 
				1274.5,977 				"/>
			<g id="_x31_1_Olcott_Square_building_2_" class="map-area">
				<polygon class="st1" points="1232.9,1005.3 1273,1013.4 1272.1,978.8 1242,967 					"/>
			</g>
		</g>
	</g>
</svg>
